{"title":"Skyline 2010 TS H264 Feel-Free","uid":5964431,"size":616030492,"categoryP":"video","categoryS":"movies","magnet":"?xt=urn:btih:85859b3a147273b7c870ebdd5feaff0e057f088e&amp;dn=Skyline+2010+TS+H264+Feel-Free&amp;tr=udp%3A%2F%2Ftracker.openbittorrent.com%3A80&amp;tr=udp%3A%2F%2Fopen.demonii.com%3A1337&amp;tr=udp%3A%2F%2Ftracker.coppersurfer.tk%3A6969&amp;tr=udp%3A%2F%2Fexodus.desync.com%3A6969","seeders":0,"leechers":0,"uploader":"hiest","files":-1,"time":1290065573,"description":"Genre:Sci-Fi | Thriller \nLanguage:English\nIMDb:http://www.imdb.com/title/tt1564585/\nSource:skyline.2010.D.CAMRip.PROPER/Audio:TWiZTED.Thx\n\nGeneral\nComplete name :Skyline 2010 TS H264 Feel-Free\nFormat : MPEG-4\nFormat profile : Base Media\nCodec ID : isom\nFile size : 586 MiB\nDuration : 1h 24mn\nOverall bit rate : 967 Kbps\nVideo #2\nCodec ID : avc1\nCodec ID/Info : Advanced Video Coding\nDuration : 1h 24mn\nBit rate mode : Variable\nBit rate : 802 Kbps\nWidth : 720 pixels\nHeight : 304 pixels\nDisplay aspect ratio : 2.35:1\nFrame rate mode : Constant\nFrame rate : 23.976 fps\nOriginal frame rate : 23.000 fps\nResolution : 24 bits\nColorimetry : 4:2:0\nScan type : Progressive\nBits/(Pixel*Frame) : 0.153\nStream size : 486 MiB (83%)\nAudio #1\nID : 1\nFormat : AAC\nFormat/Info : Advanced Audio Codec\nFormat version : Version 4\nFormat profile : LC\nFormat settings, SBR : No\nCodec ID : 40\nDuration : 1h 24mn\nBit rate mode : Constant\nBit rate : 160 Kbps\nChannel(s) : 2 channels\nChannel positions : L R\nSampling rate : 48.0 KHz\nResolution : 16 bits\nStream size : 96.9 MiB (17%)\n\nPlot:\nStrange lights descend on the city of Los Angeles, drawing people outside like moths to a flame where","torrent":{"xt":"urn:btih:85859b3a147273b7c870ebdd5feaff0e057f088e","amp;dn":"Skyline+2010+TS+H264+Feel-Free","amp;tr":["udp%3A%2F%2Ftracker.openbittorrent.com%3A80","udp%3A%2F%2Fopen.demonii.com%3A1337","udp%3A%2F%2Ftracker.coppersurfer.tk%3A6969","udp%3A%2F%2Fexodus.desync.com%3A6969"],"infoHash":"85859b3a147273b7c870ebdd5feaff0e057f088e","infoHashBuffer":{"type":"Buffer","data":[133,133,155,58,20,114,115,183,200,112,235,221,95,234,255,14,5,127,8,142]},"announce":[],"urlList":[]}}